<?xml version="1.0" encoding="utf-8"?>
<!-- Generator: Adobe Illustrator 28.3.0, SVG Export Plug-In . SVG Version: 6.00 Build 0)  -->
<svg version="1.1" id="Layer_1" xmlns="http://www.w3.org/2000/svg" xmlns:xlink="http://www.w3.org/1999/xlink" x="0px" y="0px"
	 viewBox="0 0 1920 1080" style="enable-background:new 0 0 1920 1080;" xml:space="preserve">
<style type="text/css">
	.st0{fill:none;}
	.st1{fill:none;stroke:#F9F9F9;stroke-width:1.5;stroke-miterlimit:10;}
	.st2{fill:url(#SVGID_1_);}
</style>
<pattern  width="500" height="780" patternUnits="userSpaceOnUse" id="New_Pattern_12" viewBox="35.75 -780 500 780" style="overflow:visible;">
	<g>
		<rect x="35.75" y="-780" class="st0" width="500" height="780"/>
		<g>
			<g>
				<path class="st1" d="M520.75-78v-50c-13.81,0-25,11.19-25,25v25"/>
				<path class="st1" d="M570.75-78v-25c0-27.61-22.39-50-50-50v25c13.81,0,25,11.19,25,25v25"/>
			</g>
			<g>
				<path class="st1" d="M520.75-78v25c0,27.61,22.39,50,50,50v-25c-13.81,0-25-11.19-25-25v-25"/>
			</g>
			<g>
				<path class="st1" d="M520.75-78v-50c-13.81,0-25,11.19-25,25v25"/>
				<path class="st1" d="M570.75-78v-25c0-27.61-22.39-50-50-50v25c13.81,0,25,11.19,25,25v25"/>
			</g>
			<g>
				<path class="st1" d="M520.75-78v25c0,27.61,22.39,50,50,50v-25c-13.81,0-25-11.19-25-25v-25"/>
			</g>
			<g>
				<path class="st1" d="M520.75-78v-50c-13.81,0-25,11.19-25,25v25"/>
				<path class="st1" d="M570.75-78v-25c0-27.61-22.39-50-50-50v25c13.81,0,25,11.19,25,25v25"/>
			</g>
			<g>
				<path class="st1" d="M520.75-78v25c0,27.61,22.39,50,50,50v-25c-13.81,0-25-11.19-25-25v-25"/>
			</g>
			<g>
				<path class="st1" d="M520.75-78v-50c-13.81,0-25,11.19-25,25v25"/>
				<path class="st1" d="M570.75-78v-25c0-27.61-22.39-50-50-50v25c13.81,0,25,11.19,25,25v25"/>
			</g>
			<g>
				<path class="st1" d="M520.75-78v25c0,27.61,22.39,50,50,50v-25c-13.81,0-25-11.19-25-25v-25"/>
			</g>
			<g>
				<path class="st1" d="M520.75-78v-50c-13.81,0-25,11.19-25,25v25"/>
				<path class="st1" d="M570.75-78v-25c0-27.61-22.39-50-50-50v25c13.81,0,25,11.19,25,25v25"/>
			</g>
			<g>
				<path class="st1" d="M520.75-78v25c0,27.61,22.39,50,50,50v-25c-13.81,0-25-11.19-25-25v-25"/>
			</g>
		</g>
		<g>
			<g>
				<path class="st1" d="M420.75-78v-50c-13.81,0-25,11.19-25,25v25"/>
				<path class="st1" d="M470.75-78v-25c0-27.61-22.39-50-50-50v25c13.81,0,25,11.19,25,25v25"/>
			</g>
			<g>
				<path class="st1" d="M470.75-78v50c13.81,0,25-11.19,25-25v-25"/>
				<path class="st1" d="M420.75-78v25c0,27.61,22.39,50,50,50v-25c-13.81,0-25-11.19-25-25v-25"/>
			</g>
			<g>
				<path class="st1" d="M420.75-78v-50c-13.81,0-25,11.19-25,25v25"/>
				<path class="st1" d="M470.75-78v-25c0-27.61-22.39-50-50-50v25c13.81,0,25,11.19,25,25v25"/>
			</g>
			<g>
				<path class="st1" d="M470.75-78v50c13.81,0,25-11.19,25-25v-25"/>
				<path class="st1" d="M420.75-78v25c0,27.61,22.39,50,50,50v-25c-13.81,0-25-11.19-25-25v-25"/>
			</g>
			<g>
				<path class="st1" d="M420.75-78v-50c-13.81,0-25,11.19-25,25v25"/>
				<path class="st1" d="M470.75-78v-25c0-27.61-22.39-50-50-50v25c13.81,0,25,11.19,25,25v25"/>
			</g>
			<g>
				<path class="st1" d="M470.75-78v50c13.81,0,25-11.19,25-25v-25"/>
				<path class="st1" d="M420.75-78v25c0,27.61,22.39,50,50,50v-25c-13.81,0-25-11.19-25-25v-25"/>
			</g>
			<g>
				<path class="st1" d="M420.75-78v-50c-13.81,0-25,11.19-25,25v25"/>
				<path class="st1" d="M470.75-78v-25c0-27.61-22.39-50-50-50v25c13.81,0,25,11.19,25,25v25"/>
			</g>
			<g>
				<path class="st1" d="M470.75-78v50c13.81,0,25-11.19,25-25v-25"/>
				<path class="st1" d="M420.75-78v25c0,27.61,22.39,50,50,50v-25c-13.81,0-25-11.19-25-25v-25"/>
			</g>
			<g>
				<path class="st1" d="M420.75-78v-50c-13.81,0-25,11.19-25,25v25"/>
				<path class="st1" d="M470.75-78v-25c0-27.61-22.39-50-50-50v25c13.81,0,25,11.19,25,25v25"/>
			</g>
			<g>
				<path class="st1" d="M470.75-78v50c13.81,0,25-11.19,25-25v-25"/>
				<path class="st1" d="M420.75-78v25c0,27.61,22.39,50,50,50v-25c-13.81,0-25-11.19-25-25v-25"/>
			</g>
		</g>
		<g>
			<g>
				<path class="st1" d="M320.75-78v-50c-13.81,0-25,11.19-25,25v25"/>
				<path class="st1" d="M370.75-78v-25c0-27.61-22.39-50-50-50v25c13.81,0,25,11.19,25,25v25"/>
			</g>
			<g>
				<path class="st1" d="M370.75-78v50c13.81,0,25-11.19,25-25v-25"/>
				<path class="st1" d="M320.75-78v25c0,27.61,22.39,50,50,50v-25c-13.81,0-25-11.19-25-25v-25"/>
			</g>
			<g>
				<path class="st1" d="M320.75-78v-50c-13.81,0-25,11.19-25,25v25"/>
				<path class="st1" d="M370.75-78v-25c0-27.61-22.39-50-50-50v25c13.81,0,25,11.19,25,25v25"/>
			</g>
			<g>
				<path class="st1" d="M370.75-78v50c13.81,0,25-11.19,25-25v-25"/>
				<path class="st1" d="M320.75-78v25c0,27.61,22.39,50,50,50v-25c-13.81,0-25-11.19-25-25v-25"/>
			</g>
			<g>
				<path class="st1" d="M320.75-78v-50c-13.81,0-25,11.19-25,25v25"/>
				<path class="st1" d="M370.75-78v-25c0-27.61-22.39-50-50-50v25c13.81,0,25,11.19,25,25v25"/>
			</g>
			<g>
				<path class="st1" d="M370.75-78v50c13.81,0,25-11.19,25-25v-25"/>
				<path class="st1" d="M320.75-78v25c0,27.61,22.39,50,50,50v-25c-13.81,0-25-11.19-25-25v-25"/>
			</g>
			<g>
				<path class="st1" d="M320.75-78v-50c-13.81,0-25,11.19-25,25v25"/>
				<path class="st1" d="M370.75-78v-25c0-27.61-22.39-50-50-50v25c13.81,0,25,11.19,25,25v25"/>
			</g>
			<g>
				<path class="st1" d="M370.75-78v50c13.81,0,25-11.19,25-25v-25"/>
				<path class="st1" d="M320.75-78v25c0,27.61,22.39,50,50,50v-25c-13.81,0-25-11.19-25-25v-25"/>
			</g>
			<g>
				<path class="st1" d="M320.75-78v-50c-13.81,0-25,11.19-25,25v25"/>
				<path class="st1" d="M370.75-78v-25c0-27.61-22.39-50-50-50v25c13.81,0,25,11.19,25,25v25"/>
			</g>
			<g>
				<path class="st1" d="M370.75-78v50c13.81,0,25-11.19,25-25v-25"/>
				<path class="st1" d="M320.75-78v25c0,27.61,22.39,50,50,50v-25c-13.81,0-25-11.19-25-25v-25"/>
			</g>
		</g>
		<g>
			<g>
				<path class="st1" d="M220.75-78v-50c-13.81,0-25,11.19-25,25v25"/>
				<path class="st1" d="M270.75-78v-25c0-27.61-22.39-50-50-50v25c13.81,0,25,11.19,25,25v25"/>
			</g>
			<g>
				<path class="st1" d="M270.75-78v50c13.81,0,25-11.19,25-25v-25"/>
				<path class="st1" d="M220.75-78v25c0,27.61,22.39,50,50,50v-25c-13.81,0-25-11.19-25-25v-25"/>
			</g>
			<g>
				<path class="st1" d="M220.75-78v-50c-13.81,0-25,11.19-25,25v25"/>
				<path class="st1" d="M270.75-78v-25c0-27.61-22.39-50-50-50v25c13.81,0,25,11.19,25,25v25"/>
			</g>
			<g>
				<path class="st1" d="M270.75-78v50c13.81,0,25-11.19,25-25v-25"/>
				<path class="st1" d="M220.75-78v25c0,27.61,22.39,50,50,50v-25c-13.81,0-25-11.19-25-25v-25"/>
			</g>
			<g>
				<path class="st1" d="M220.75-78v-50c-13.81,0-25,11.19-25,25v25"/>
				<path class="st1" d="M270.75-78v-25c0-27.61-22.39-50-50-50v25c13.81,0,25,11.19,25,25v25"/>
			</g>
			<g>
				<path class="st1" d="M270.75-78v50c13.81,0,25-11.19,25-25v-25"/>
				<path class="st1" d="M220.75-78v25c0,27.61,22.39,50,50,50v-25c-13.81,0-25-11.19-25-25v-25"/>
			</g>
			<g>
				<path class="st1" d="M220.75-78v-50c-13.81,0-25,11.19-25,25v25"/>
				<path class="st1" d="M270.75-78v-25c0-27.61-22.39-50-50-50v25c13.81,0,25,11.19,25,25v25"/>
			</g>
			<g>
				<path class="st1" d="M270.75-78v50c13.81,0,25-11.19,25-25v-25"/>
				<path class="st1" d="M220.75-78v25c0,27.61,22.39,50,50,50v-25c-13.81,0-25-11.19-25-25v-25"/>
			</g>
			<g>
				<path class="st1" d="M220.75-78v-50c-13.81,0-25,11.19-25,25v25"/>
				<path class="st1" d="M270.75-78v-25c0-27.61-22.39-50-50-50v25c13.81,0,25,11.19,25,25v25"/>
			</g>
			<g>
				<path class="st1" d="M270.75-78v50c13.81,0,25-11.19,25-25v-25"/>
				<path class="st1" d="M220.75-78v25c0,27.61,22.39,50,50,50v-25c-13.81,0-25-11.19-25-25v-25"/>
			</g>
		</g>
		<g>
			<g>
				<path class="st1" d="M120.75-78v-50c-13.81,0-25,11.19-25,25v25"/>
				<path class="st1" d="M170.75-78v-25c0-27.61-22.39-50-50-50v25c13.81,0,25,11.19,25,25v25"/>
			</g>
			<g>
				<path class="st1" d="M170.75-78v50c13.81,0,25-11.19,25-25v-25"/>
				<path class="st1" d="M120.75-78v25c0,27.61,22.39,50,50,50v-25c-13.81,0-25-11.19-25-25v-25"/>
			</g>
			<g>
				<path class="st1" d="M120.75-78v-50c-13.81,0-25,11.19-25,25v25"/>
				<path class="st1" d="M170.75-78v-25c0-27.61-22.39-50-50-50v25c13.81,0,25,11.19,25,25v25"/>
			</g>
			<g>
				<path class="st1" d="M170.75-78v50c13.81,0,25-11.19,25-25v-25"/>
				<path class="st1" d="M120.75-78v25c0,27.61,22.39,50,50,50v-25c-13.81,0-25-11.19-25-25v-25"/>
			</g>
			<g>
				<path class="st1" d="M120.75-78v-50c-13.81,0-25,11.19-25,25v25"/>
				<path class="st1" d="M170.75-78v-25c0-27.61-22.39-50-50-50v25c13.81,0,25,11.19,25,25v25"/>
			</g>
			<g>
				<path class="st1" d="M170.75-78v50c13.81,0,25-11.19,25-25v-25"/>
				<path class="st1" d="M120.75-78v25c0,27.61,22.39,50,50,50v-25c-13.81,0-25-11.19-25-25v-25"/>
			</g>
			<g>
				<path class="st1" d="M120.75-78v-50c-13.81,0-25,11.19-25,25v25"/>
				<path class="st1" d="M170.75-78v-25c0-27.61-22.39-50-50-50v25c13.81,0,25,11.19,25,25v25"/>
			</g>
			<g>
				<path class="st1" d="M170.75-78v50c13.81,0,25-11.19,25-25v-25"/>
				<path class="st1" d="M120.75-78v25c0,27.61,22.39,50,50,50v-25c-13.81,0-25-11.19-25-25v-25"/>
			</g>
			<g>
				<path class="st1" d="M120.75-78v-50c-13.81,0-25,11.19-25,25v25"/>
				<path class="st1" d="M170.75-78v-25c0-27.61-22.39-50-50-50v25c13.81,0,25,11.19,25,25v25"/>
			</g>
			<g>
				<path class="st1" d="M170.75-78v50c13.81,0,25-11.19,25-25v-25"/>
				<path class="st1" d="M120.75-78v25c0,27.61,22.39,50,50,50v-25c-13.81,0-25-11.19-25-25v-25"/>
			</g>
		</g>
		<g>
			<g>
				<path class="st1" d="M70.75-78v-25c0-27.61-22.39-50-50-50v25c13.81,0,25,11.19,25,25v25"/>
			</g>
			<g>
				<path class="st1" d="M70.75-78v50c13.81,0,25-11.19,25-25v-25"/>
				<path class="st1" d="M20.75-78v25c0,27.61,22.39,50,50,50v-25c-13.81,0-25-11.19-25-25v-25"/>
			</g>
			<g>
				<path class="st1" d="M70.75-78v-25c0-27.61-22.39-50-50-50v25c13.81,0,25,11.19,25,25v25"/>
			</g>
			<g>
				<path class="st1" d="M70.75-78v50c13.81,0,25-11.19,25-25v-25"/>
				<path class="st1" d="M20.75-78v25c0,27.61,22.39,50,50,50v-25c-13.81,0-25-11.19-25-25v-25"/>
			</g>
			<g>
				<path class="st1" d="M70.75-78v-25c0-27.61-22.39-50-50-50v25c13.81,0,25,11.19,25,25v25"/>
			</g>
			<g>
				<path class="st1" d="M70.75-78v50c13.81,0,25-11.19,25-25v-25"/>
				<path class="st1" d="M20.75-78v25c0,27.61,22.39,50,50,50v-25c-13.81,0-25-11.19-25-25v-25"/>
			</g>
			<g>
				<path class="st1" d="M70.75-78v-25c0-27.61-22.39-50-50-50v25c13.81,0,25,11.19,25,25v25"/>
			</g>
			<g>
				<path class="st1" d="M70.75-78v50c13.81,0,25-11.19,25-25v-25"/>
				<path class="st1" d="M20.75-78v25c0,27.61,22.39,50,50,50v-25c-13.81,0-25-11.19-25-25v-25"/>
			</g>
			<g>
				<path class="st1" d="M70.75-78v-25c0-27.61-22.39-50-50-50v25c13.81,0,25,11.19,25,25v25"/>
			</g>
			<g>
				<path class="st1" d="M70.75-78v50c13.81,0,25-11.19,25-25v-25"/>
				<path class="st1" d="M20.75-78v25c0,27.61,22.39,50,50,50v-25c-13.81,0-25-11.19-25-25v-25"/>
			</g>
		</g>
		<g>
			<g>
				<path class="st1" d="M540.75-234v-50c-13.81,0-25,11.19-25,25v25"/>
			</g>
			<g>
				<path class="st1" d="M540.75-234v-50c-13.81,0-25,11.19-25,25v25"/>
			</g>
			<g>
				<path class="st1" d="M540.75-234v-50c-13.81,0-25,11.19-25,25v25"/>
			</g>
			<g>
				<path class="st1" d="M540.75-234v-50c-13.81,0-25,11.19-25,25v25"/>
			</g>
			<g>
				<path class="st1" d="M540.75-234v-50c-13.81,0-25,11.19-25,25v25"/>
			</g>
		</g>
		<g>
			<g>
				<path class="st1" d="M440.75-234v-50c-13.81,0-25,11.19-25,25v25"/>
				<path class="st1" d="M490.75-234v-25c0-27.61-22.39-50-50-50v25c13.81,0,25,11.19,25,25v25"/>
			</g>
			<g>
				<path class="st1" d="M490.75-234v50c13.81,0,25-11.19,25-25v-25"/>
				<path class="st1" d="M440.75-234v25c0,27.61,22.39,50,50,50v-25c-13.81,0-25-11.19-25-25v-25"/>
			</g>
			<g>
				<path class="st1" d="M440.75-234v-50c-13.81,0-25,11.19-25,25v25"/>
				<path class="st1" d="M490.75-234v-25c0-27.61-22.39-50-50-50v25c13.81,0,25,11.19,25,25v25"/>
			</g>
			<g>
				<path class="st1" d="M490.75-234v50c13.81,0,25-11.19,25-25v-25"/>
				<path class="st1" d="M440.75-234v25c0,27.61,22.39,50,50,50v-25c-13.81,0-25-11.19-25-25v-25"/>
			</g>
			<g>
				<path class="st1" d="M440.75-234v-50c-13.81,0-25,11.19-25,25v25"/>
				<path class="st1" d="M490.75-234v-25c0-27.61-22.39-50-50-50v25c13.81,0,25,11.19,25,25v25"/>
			</g>
			<g>
				<path class="st1" d="M490.75-234v50c13.81,0,25-11.19,25-25v-25"/>
				<path class="st1" d="M440.75-234v25c0,27.61,22.39,50,50,50v-25c-13.81,0-25-11.19-25-25v-25"/>
			</g>
			<g>
				<path class="st1" d="M440.75-234v-50c-13.81,0-25,11.19-25,25v25"/>
				<path class="st1" d="M490.75-234v-25c0-27.61-22.39-50-50-50v25c13.81,0,25,11.19,25,25v25"/>
			</g>
			<g>
				<path class="st1" d="M490.75-234v50c13.81,0,25-11.19,25-25v-25"/>
				<path class="st1" d="M440.75-234v25c0,27.61,22.39,50,50,50v-25c-13.81,0-25-11.19-25-25v-25"/>
			</g>
			<g>
				<path class="st1" d="M440.75-234v-50c-13.81,0-25,11.19-25,25v25"/>
				<path class="st1" d="M490.75-234v-25c0-27.61-22.39-50-50-50v25c13.81,0,25,11.19,25,25v25"/>
			</g>
			<g>
				<path class="st1" d="M490.75-234v50c13.81,0,25-11.19,25-25v-25"/>
				<path class="st1" d="M440.75-234v25c0,27.61,22.39,50,50,50v-25c-13.81,0-25-11.19-25-25v-25"/>
			</g>
		</g>
		<g>
			<g>
				<path class="st1" d="M340.75-234v-50c-13.81,0-25,11.19-25,25v25"/>
				<path class="st1" d="M390.75-234v-25c0-27.61-22.39-50-50-50v25c13.81,0,25,11.19,25,25v25"/>
			</g>
			<g>
				<path class="st1" d="M390.75-234v50c13.81,0,25-11.19,25-25v-25"/>
				<path class="st1" d="M340.75-234v25c0,27.61,22.39,50,50,50v-25c-13.81,0-25-11.19-25-25v-25"/>
			</g>
			<g>
				<path class="st1" d="M340.75-234v-50c-13.81,0-25,11.19-25,25v25"/>
				<path class="st1" d="M390.75-234v-25c0-27.61-22.39-50-50-50v25c13.81,0,25,11.19,25,25v25"/>
			</g>
			<g>
				<path class="st1" d="M390.75-234v50c13.81,0,25-11.19,25-25v-25"/>
				<path class="st1" d="M340.75-234v25c0,27.61,22.39,50,50,50v-25c-13.81,0-25-11.19-25-25v-25"/>
			</g>
			<g>
				<path class="st1" d="M340.75-234v-50c-13.81,0-25,11.19-25,25v25"/>
				<path class="st1" d="M390.75-234v-25c0-27.61-22.39-50-50-50v25c13.81,0,25,11.19,25,25v25"/>
			</g>
			<g>
				<path class="st1" d="M390.75-234v50c13.81,0,25-11.19,25-25v-25"/>
				<path class="st1" d="M340.75-234v25c0,27.61,22.39,50,50,50v-25c-13.81,0-25-11.19-25-25v-25"/>
			</g>
			<g>
				<path class="st1" d="M340.75-234v-50c-13.81,0-25,11.19-25,25v25"/>
				<path class="st1" d="M390.75-234v-25c0-27.61-22.39-50-50-50v25c13.81,0,25,11.19,25,25v25"/>
			</g>
			<g>
				<path class="st1" d="M390.75-234v50c13.81,0,25-11.19,25-25v-25"/>
				<path class="st1" d="M340.75-234v25c0,27.61,22.39,50,50,50v-25c-13.81,0-25-11.19-25-25v-25"/>
			</g>
			<g>
				<path class="st1" d="M340.75-234v-50c-13.81,0-25,11.19-25,25v25"/>
				<path class="st1" d="M390.75-234v-25c0-27.61-22.39-50-50-50v25c13.81,0,25,11.19,25,25v25"/>
			</g>
			<g>
				<path class="st1" d="M390.75-234v50c13.81,0,25-11.19,25-25v-25"/>
				<path class="st1" d="M340.75-234v25c0,27.61,22.39,50,50,50v-25c-13.81,0-25-11.19-25-25v-25"/>
			</g>
		</g>
		<g>
			<g>
				<path class="st1" d="M240.75-234v-50c-13.81,0-25,11.19-25,25v25"/>
				<path class="st1" d="M290.75-234v-25c0-27.61-22.39-50-50-50v25c13.81,0,25,11.19,25,25v25"/>
			</g>
			<g>
				<path class="st1" d="M290.75-234v50c13.81,0,25-11.19,25-25v-25"/>
				<path class="st1" d="M240.75-234v25c0,27.61,22.39,50,50,50v-25c-13.81,0-25-11.19-25-25v-25"/>
			</g>
			<g>
				<path class="st1" d="M240.75-234v-50c-13.81,0-25,11.19-25,25v25"/>
				<path class="st1" d="M290.75-234v-25c0-27.61-22.39-50-50-50v25c13.81,0,25,11.19,25,25v25"/>
			</g>
			<g>
				<path class="st1" d="M290.75-234v50c13.81,0,25-11.19,25-25v-25"/>
				<path class="st1" d="M240.75-234v25c0,27.61,22.39,50,50,50v-25c-13.81,0-25-11.19-25-25v-25"/>
			</g>
			<g>
				<path class="st1" d="M240.75-234v-50c-13.81,0-25,11.19-25,25v25"/>
				<path class="st1" d="M290.75-234v-25c0-27.61-22.39-50-50-50v25c13.81,0,25,11.19,25,25v25"/>
			</g>
			<g>
				<path class="st1" d="M290.75-234v50c13.81,0,25-11.19,25-25v-25"/>
				<path class="st1" d="M240.75-234v25c0,27.61,22.39,50,50,50v-25c-13.81,0-25-11.19-25-25v-25"/>
			</g>
			<g>
				<path class="st1" d="M240.75-234v-50c-13.81,0-25,11.19-25,25v25"/>
				<path class="st1" d="M290.75-234v-25c0-27.61-22.39-50-50-50v25c13.81,0,25,11.19,25,25v25"/>
			</g>
			<g>
				<path class="st1" d="M290.75-234v50c13.81,0,25-11.19,25-25v-25"/>
				<path class="st1" d="M240.75-234v25c0,27.61,22.39,50,50,50v-25c-13.81,0-25-11.19-25-25v-25"/>
			</g>
			<g>
				<path class="st1" d="M240.75-234v-50c-13.81,0-25,11.19-25,25v25"/>
				<path class="st1" d="M290.75-234v-25c0-27.61-22.39-50-50-50v25c13.81,0,25,11.19,25,25v25"/>
			</g>
			<g>
				<path class="st1" d="M290.75-234v50c13.81,0,25-11.19,25-25v-25"/>
				<path class="st1" d="M240.75-234v25c0,27.61,22.39,50,50,50v-25c-13.81,0-25-11.19-25-25v-25"/>
			</g>
		</g>
		<g>
			<g>
				<path class="st1" d="M140.75-234v-50c-13.81,0-25,11.19-25,25v25"/>
				<path class="st1" d="M190.75-234v-25c0-27.61-22.39-50-50-50v25c13.81,0,25,11.19,25,25v25"/>
			</g>
			<g>
				<path class="st1" d="M190.75-234v50c13.81,0,25-11.19,25-25v-25"/>
				<path class="st1" d="M140.75-234v25c0,27.61,22.39,50,50,50v-25c-13.81,0-25-11.19-25-25v-25"/>
			</g>
			<g>
				<path class="st1" d="M140.75-234v-50c-13.81,0-25,11.19-25,25v25"/>
				<path class="st1" d="M190.75-234v-25c0-27.61-22.39-50-50-50v25c13.81,0,25,11.19,25,25v25"/>
			</g>
			<g>
				<path class="st1" d="M190.75-234v50c13.81,0,25-11.19,25-25v-25"/>
				<path class="st1" d="M140.75-234v25c0,27.61,22.39,50,50,50v-25c-13.81,0-25-11.19-25-25v-25"/>
			</g>
			<g>
				<path class="st1" d="M140.75-234v-50c-13.81,0-25,11.19-25,25v25"/>
				<path class="st1" d="M190.75-234v-25c0-27.61-22.39-50-50-50v25c13.81,0,25,11.19,25,25v25"/>
			</g>
			<g>
				<path class="st1" d="M190.75-234v50c13.81,0,25-11.19,25-25v-25"/>
				<path class="st1" d="M140.75-234v25c0,27.61,22.39,50,50,50v-25c-13.81,0-25-11.19-25-25v-25"/>
			</g>
			<g>
				<path class="st1" d="M140.75-234v-50c-13.81,0-25,11.19-25,25v25"/>
				<path class="st1" d="M190.75-234v-25c0-27.61-22.39-50-50-50v25c13.81,0,25,11.19,25,25v25"/>
			</g>
			<g>
				<path class="st1" d="M190.75-234v50c13.81,0,25-11.19,25-25v-25"/>
				<path class="st1" d="M140.75-234v25c0,27.61,22.39,50,50,50v-25c-13.81,0-25-11.19-25-25v-25"/>
			</g>
			<g>
				<path class="st1" d="M140.75-234v-50c-13.81,0-25,11.19-25,25v25"/>
				<path class="st1" d="M190.75-234v-25c0-27.61-22.39-50-50-50v25c13.81,0,25,11.19,25,25v25"/>
			</g>
			<g>
				<path class="st1" d="M190.75-234v50c13.81,0,25-11.19,25-25v-25"/>
				<path class="st1" d="M140.75-234v25c0,27.61,22.39,50,50,50v-25c-13.81,0-25-11.19-25-25v-25"/>
			</g>
		</g>
		<g>
			<g>
				<path class="st1" d="M40.75-234v-50c-13.81,0-25,11.19-25,25v25"/>
				<path class="st1" d="M90.75-234v-25c0-27.61-22.39-50-50-50v25c13.81,0,25,11.19,25,25v25"/>
			</g>
			<g>
				<path class="st1" d="M90.75-234v50c13.81,0,25-11.19,25-25v-25"/>
				<path class="st1" d="M40.75-234v25c0,27.61,22.39,50,50,50v-25c-13.81,0-25-11.19-25-25v-25"/>
			</g>
			<g>
				<path class="st1" d="M40.75-234v-50c-13.81,0-25,11.19-25,25v25"/>
				<path class="st1" d="M90.75-234v-25c0-27.61-22.39-50-50-50v25c13.81,0,25,11.19,25,25v25"/>
			</g>
			<g>
				<path class="st1" d="M90.75-234v50c13.81,0,25-11.19,25-25v-25"/>
				<path class="st1" d="M40.75-234v25c0,27.61,22.39,50,50,50v-25c-13.81,0-25-11.19-25-25v-25"/>
			</g>
			<g>
				<path class="st1" d="M40.75-234v-50c-13.81,0-25,11.19-25,25v25"/>
				<path class="st1" d="M90.75-234v-25c0-27.61-22.39-50-50-50v25c13.81,0,25,11.19,25,25v25"/>
			</g>
			<g>
				<path class="st1" d="M90.75-234v50c13.81,0,25-11.19,25-25v-25"/>
				<path class="st1" d="M40.75-234v25c0,27.61,22.39,50,50,50v-25c-13.81,0-25-11.19-25-25v-25"/>
			</g>
			<g>
				<path class="st1" d="M40.75-234v-50c-13.81,0-25,11.19-25,25v25"/>
				<path class="st1" d="M90.75-234v-25c0-27.61-22.39-50-50-50v25c13.81,0,25,11.19,25,25v25"/>
			</g>
			<g>
				<path class="st1" d="M90.75-234v50c13.81,0,25-11.19,25-25v-25"/>
				<path class="st1" d="M40.75-234v25c0,27.61,22.39,50,50,50v-25c-13.81,0-25-11.19-25-25v-25"/>
			</g>
			<g>
				<path class="st1" d="M40.75-234v-50c-13.81,0-25,11.19-25,25v25"/>
				<path class="st1" d="M90.75-234v-25c0-27.61-22.39-50-50-50v25c13.81,0,25,11.19,25,25v25"/>
			</g>
			<g>
				<path class="st1" d="M90.75-234v50c13.81,0,25-11.19,25-25v-25"/>
				<path class="st1" d="M40.75-234v25c0,27.61,22.39,50,50,50v-25c-13.81,0-25-11.19-25-25v-25"/>
			</g>
		</g>
		<g>
			<g>
				<path class="st1" d="M560.75-390v-50c-13.81,0-25,11.19-25,25v25"/>
			</g>
			<g>
				<path class="st1" d="M560.75-390v-50c-13.81,0-25,11.19-25,25v25"/>
			</g>
			<g>
				<path class="st1" d="M560.75-390v-50c-13.81,0-25,11.19-25,25v25"/>
			</g>
			<g>
				<path class="st1" d="M560.75-390v-50c-13.81,0-25,11.19-25,25v25"/>
			</g>
			<g>
				<path class="st1" d="M560.75-390v-50c-13.81,0-25,11.19-25,25v25"/>
			</g>
		</g>
		<g>
			<g>
				<path class="st1" d="M460.75-390v-50c-13.81,0-25,11.19-25,25v25"/>
				<path class="st1" d="M510.75-390v-25c0-27.61-22.39-50-50-50v25c13.81,0,25,11.19,25,25v25"/>
			</g>
			<g>
				<path class="st1" d="M510.75-390v50c13.81,0,25-11.19,25-25v-25"/>
				<path class="st1" d="M460.75-390v25c0,27.61,22.39,50,50,50v-25c-13.81,0-25-11.19-25-25v-25"/>
			</g>
			<g>
				<path class="st1" d="M460.75-390v-50c-13.81,0-25,11.19-25,25v25"/>
				<path class="st1" d="M510.75-390v-25c0-27.61-22.39-50-50-50v25c13.81,0,25,11.19,25,25v25"/>
			</g>
			<g>
				<path class="st1" d="M510.75-390v50c13.81,0,25-11.19,25-25v-25"/>
				<path class="st1" d="M460.75-390v25c0,27.61,22.39,50,50,50v-25c-13.81,0-25-11.19-25-25v-25"/>
			</g>
			<g>
				<path class="st1" d="M460.75-390v-50c-13.81,0-25,11.19-25,25v25"/>
				<path class="st1" d="M510.75-390v-25c0-27.61-22.39-50-50-50v25c13.81,0,25,11.19,25,25v25"/>
			</g>
			<g>
				<path class="st1" d="M510.75-390v50c13.81,0,25-11.19,25-25v-25"/>
				<path class="st1" d="M460.75-390v25c0,27.61,22.39,50,50,50v-25c-13.81,0-25-11.19-25-25v-25"/>
			</g>
			<g>
				<path class="st1" d="M460.75-390v-50c-13.81,0-25,11.19-25,25v25"/>
				<path class="st1" d="M510.75-390v-25c0-27.61-22.39-50-50-50v25c13.81,0,25,11.19,25,25v25"/>
			</g>
			<g>
				<path class="st1" d="M510.75-390v50c13.81,0,25-11.19,25-25v-25"/>
				<path class="st1" d="M460.75-390v25c0,27.61,22.39,50,50,50v-25c-13.81,0-25-11.19-25-25v-25"/>
			</g>
			<g>
				<path class="st1" d="M460.75-390v-50c-13.81,0-25,11.19-25,25v25"/>
				<path class="st1" d="M510.75-390v-25c0-27.61-22.39-50-50-50v25c13.81,0,25,11.19,25,25v25"/>
			</g>
			<g>
				<path class="st1" d="M510.75-390v50c13.81,0,25-11.19,25-25v-25"/>
				<path class="st1" d="M460.75-390v25c0,27.61,22.39,50,50,50v-25c-13.81,0-25-11.19-25-25v-25"/>
			</g>
		</g>
		<g>
			<g>
				<path class="st1" d="M360.75-390v-50c-13.81,0-25,11.19-25,25v25"/>
				<path class="st1" d="M410.75-390v-25c0-27.61-22.39-50-50-50v25c13.81,0,25,11.19,25,25v25"/>
			</g>
			<g>
				<path class="st1" d="M410.75-390v50c13.81,0,25-11.19,25-25v-25"/>
				<path class="st1" d="M360.75-390v25c0,27.61,22.39,50,50,50v-25c-13.81,0-25-11.19-25-25v-25"/>
			</g>
			<g>
				<path class="st1" d="M360.75-390v-50c-13.81,0-25,11.19-25,25v25"/>
				<path class="st1" d="M410.75-390v-25c0-27.61-22.39-50-50-50v25c13.81,0,25,11.19,25,25v25"/>
			</g>
			<g>
				<path class="st1" d="M410.75-390v50c13.81,0,25-11.19,25-25v-25"/>
				<path class="st1" d="M360.75-390v25c0,27.61,22.39,50,50,50v-25c-13.81,0-25-11.19-25-25v-25"/>
			</g>
			<g>
				<path class="st1" d="M360.75-390v-50c-13.81,0-25,11.19-25,25v25"/>
				<path class="st1" d="M410.75-390v-25c0-27.61-22.39-50-50-50v25c13.81,0,25,11.19,25,25v25"/>
			</g>
			<g>
				<path class="st1" d="M410.75-390v50c13.81,0,25-11.19,25-25v-25"/>
				<path class="st1" d="M360.75-390v25c0,27.61,22.39,50,50,50v-25c-13.81,0-25-11.19-25-25v-25"/>
			</g>
			<g>
				<path class="st1" d="M360.75-390v-50c-13.81,0-25,11.19-25,25v25"/>
				<path class="st1" d="M410.75-390v-25c0-27.61-22.39-50-50-50v25c13.81,0,25,11.19,25,25v25"/>
			</g>
			<g>
				<path class="st1" d="M410.75-390v50c13.81,0,25-11.19,25-25v-25"/>
				<path class="st1" d="M360.75-390v25c0,27.61,22.39,50,50,50v-25c-13.81,0-25-11.19-25-25v-25"/>
			</g>
			<g>
				<path class="st1" d="M360.75-390v-50c-13.81,0-25,11.19-25,25v25"/>
				<path class="st1" d="M410.75-390v-25c0-27.61-22.39-50-50-50v25c13.81,0,25,11.19,25,25v25"/>
			</g>
			<g>
				<path class="st1" d="M410.75-390v50c13.81,0,25-11.19,25-25v-25"/>
				<path class="st1" d="M360.75-390v25c0,27.61,22.39,50,50,50v-25c-13.81,0-25-11.19-25-25v-25"/>
			</g>
		</g>
		<g>
			<g>
				<path class="st1" d="M260.75-390v-50c-13.81,0-25,11.19-25,25v25"/>
				<path class="st1" d="M310.75-390v-25c0-27.61-22.39-50-50-50v25c13.81,0,25,11.19,25,25v25"/>
			</g>
			<g>
				<path class="st1" d="M310.75-390v50c13.81,0,25-11.19,25-25v-25"/>
				<path class="st1" d="M260.75-390v25c0,27.61,22.39,50,50,50v-25c-13.81,0-25-11.19-25-25v-25"/>
			</g>
			<g>
				<path class="st1" d="M260.75-390v-50c-13.81,0-25,11.19-25,25v25"/>
				<path class="st1" d="M310.75-390v-25c0-27.61-22.39-50-50-50v25c13.81,0,25,11.19,25,25v25"/>
			</g>
			<g>
				<path class="st1" d="M310.75-390v50c13.81,0,25-11.19,25-25v-25"/>
				<path class="st1" d="M260.75-390v25c0,27.61,22.39,50,50,50v-25c-13.81,0-25-11.19-25-25v-25"/>
			</g>
			<g>
				<path class="st1" d="M260.75-390v-50c-13.81,0-25,11.19-25,25v25"/>
				<path class="st1" d="M310.75-390v-25c0-27.61-22.39-50-50-50v25c13.81,0,25,11.19,25,25v25"/>
			</g>
			<g>
				<path class="st1" d="M310.75-390v50c13.81,0,25-11.19,25-25v-25"/>
				<path class="st1" d="M260.75-390v25c0,27.61,22.39,50,50,50v-25c-13.81,0-25-11.19-25-25v-25"/>
			</g>
			<g>
				<path class="st1" d="M260.75-390v-50c-13.81,0-25,11.19-25,25v25"/>
				<path class="st1" d="M310.75-390v-25c0-27.61-22.39-50-50-50v25c13.81,0,25,11.19,25,25v25"/>
			</g>
			<g>
				<path class="st1" d="M310.75-390v50c13.81,0,25-11.19,25-25v-25"/>
				<path class="st1" d="M260.75-390v25c0,27.61,22.39,50,50,50v-25c-13.81,0-25-11.19-25-25v-25"/>
			</g>
			<g>
				<path class="st1" d="M260.75-390v-50c-13.81,0-25,11.19-25,25v25"/>
				<path class="st1" d="M310.75-390v-25c0-27.61-22.39-50-50-50v25c13.81,0,25,11.19,25,25v25"/>
			</g>
			<g>
				<path class="st1" d="M310.75-390v50c13.81,0,25-11.19,25-25v-25"/>
				<path class="st1" d="M260.75-390v25c0,27.61,22.39,50,50,50v-25c-13.81,0-25-11.19-25-25v-25"/>
			</g>
		</g>
		<g>
			<g>
				<path class="st1" d="M160.75-390v-50c-13.81,0-25,11.19-25,25v25"/>
				<path class="st1" d="M210.75-390v-25c0-27.61-22.39-50-50-50v25c13.81,0,25,11.19,25,25v25"/>
			</g>
			<g>
				<path class="st1" d="M210.75-390v50c13.81,0,25-11.19,25-25v-25"/>
				<path class="st1" d="M160.75-390v25c0,27.61,22.39,50,50,50v-25c-13.81,0-25-11.19-25-25v-25"/>
			</g>
			<g>
				<path class="st1" d="M160.75-390v-50c-13.81,0-25,11.19-25,25v25"/>
				<path class="st1" d="M210.75-390v-25c0-27.61-22.39-50-50-50v25c13.81,0,25,11.19,25,25v25"/>
			</g>
			<g>
				<path class="st1" d="M210.75-390v50c13.81,0,25-11.19,25-25v-25"/>
				<path class="st1" d="M160.75-390v25c0,27.61,22.39,50,50,50v-25c-13.81,0-25-11.19-25-25v-25"/>
			</g>
			<g>
				<path class="st1" d="M160.75-390v-50c-13.81,0-25,11.19-25,25v25"/>
				<path class="st1" d="M210.75-390v-25c0-27.61-22.39-50-50-50v25c13.81,0,25,11.19,25,25v25"/>
			</g>
			<g>
				<path class="st1" d="M210.75-390v50c13.81,0,25-11.19,25-25v-25"/>
				<path class="st1" d="M160.75-390v25c0,27.61,22.39,50,50,50v-25c-13.81,0-25-11.19-25-25v-25"/>
			</g>
			<g>
				<path class="st1" d="M160.75-390v-50c-13.81,0-25,11.19-25,25v25"/>
				<path class="st1" d="M210.75-390v-25c0-27.61-22.39-50-50-50v25c13.81,0,25,11.19,25,25v25"/>
			</g>
			<g>
				<path class="st1" d="M210.75-390v50c13.81,0,25-11.19,25-25v-25"/>
				<path class="st1" d="M160.75-390v25c0,27.61,22.39,50,50,50v-25c-13.81,0-25-11.19-25-25v-25"/>
			</g>
			<g>
				<path class="st1" d="M160.75-390v-50c-13.81,0-25,11.19-25,25v25"/>
				<path class="st1" d="M210.75-390v-25c0-27.61-22.39-50-50-50v25c13.81,0,25,11.19,25,25v25"/>
			</g>
			<g>
				<path class="st1" d="M210.75-390v50c13.81,0,25-11.19,25-25v-25"/>
				<path class="st1" d="M160.75-390v25c0,27.61,22.39,50,50,50v-25c-13.81,0-25-11.19-25-25v-25"/>
			</g>
		</g>
		<g>
			<g>
				<path class="st1" d="M60.75-390v-50c-13.81,0-25,11.19-25,25v25"/>
				<path class="st1" d="M110.75-390v-25c0-27.61-22.39-50-50-50v25c13.81,0,25,11.19,25,25v25"/>
			</g>
			<g>
				<path class="st1" d="M110.75-390v50c13.81,0,25-11.19,25-25v-25"/>
				<path class="st1" d="M60.75-390v25c0,27.61,22.39,50,50,50v-25c-13.81,0-25-11.19-25-25v-25"/>
			</g>
			<g>
				<path class="st1" d="M60.75-390v-50c-13.81,0-25,11.19-25,25v25"/>
				<path class="st1" d="M110.75-390v-25c0-27.61-22.39-50-50-50v25c13.81,0,25,11.19,25,25v25"/>
			</g>
			<g>
				<path class="st1" d="M110.75-390v50c13.81,0,25-11.19,25-25v-25"/>
				<path class="st1" d="M60.75-390v25c0,27.61,22.39,50,50,50v-25c-13.81,0-25-11.19-25-25v-25"/>
			</g>
			<g>
				<path class="st1" d="M60.75-390v-50c-13.81,0-25,11.19-25,25v25"/>
				<path class="st1" d="M110.75-390v-25c0-27.61-22.39-50-50-50v25c13.81,0,25,11.19,25,25v25"/>
			</g>
			<g>
				<path class="st1" d="M110.75-390v50c13.81,0,25-11.19,25-25v-25"/>
				<path class="st1" d="M60.75-390v25c0,27.61,22.39,50,50,50v-25c-13.81,0-25-11.19-25-25v-25"/>
			</g>
			<g>
				<path class="st1" d="M60.75-390v-50c-13.81,0-25,11.19-25,25v25"/>
				<path class="st1" d="M110.75-390v-25c0-27.61-22.39-50-50-50v25c13.81,0,25,11.19,25,25v25"/>
			</g>
			<g>
				<path class="st1" d="M110.75-390v50c13.81,0,25-11.19,25-25v-25"/>
				<path class="st1" d="M60.75-390v25c0,27.61,22.39,50,50,50v-25c-13.81,0-25-11.19-25-25v-25"/>
			</g>
			<g>
				<path class="st1" d="M60.75-390v-50c-13.81,0-25,11.19-25,25v25"/>
				<path class="st1" d="M110.75-390v-25c0-27.61-22.39-50-50-50v25c13.81,0,25,11.19,25,25v25"/>
			</g>
			<g>
				<path class="st1" d="M110.75-390v50c13.81,0,25-11.19,25-25v-25"/>
				<path class="st1" d="M60.75-390v25c0,27.61,22.39,50,50,50v-25c-13.81,0-25-11.19-25-25v-25"/>
			</g>
		</g>
		<g>
			<g>
				<path class="st1" d="M10.75-390v50c13.81,0,25-11.19,25-25v-25"/>
			</g>
			<g>
				<path class="st1" d="M10.75-390v50c13.81,0,25-11.19,25-25v-25"/>
			</g>
			<g>
				<path class="st1" d="M10.75-390v50c13.81,0,25-11.19,25-25v-25"/>
			</g>
			<g>
				<path class="st1" d="M10.75-390v50c13.81,0,25-11.19,25-25v-25"/>
			</g>
			<g>
				<path class="st1" d="M10.75-390v50c13.81,0,25-11.19,25-25v-25"/>
			</g>
		</g>
		<g>
			<g>
				<path class="st1" d="M480.75-546v-50c-13.81,0-25,11.19-25,25v25"/>
				<path class="st1" d="M530.75-546v-25c0-27.61-22.39-50-50-50v25c13.81,0,25,11.19,25,25v25"/>
			</g>
			<g>
				<path class="st1" d="M530.75-546v50c13.81,0,25-11.19,25-25v-25"/>
				<path class="st1" d="M480.75-546v25c0,27.61,22.39,50,50,50v-25c-13.81,0-25-11.19-25-25v-25"/>
			</g>
			<g>
				<path class="st1" d="M480.75-546v-50c-13.81,0-25,11.19-25,25v25"/>
				<path class="st1" d="M530.75-546v-25c0-27.61-22.39-50-50-50v25c13.81,0,25,11.19,25,25v25"/>
			</g>
			<g>
				<path class="st1" d="M530.75-546v50c13.81,0,25-11.19,25-25v-25"/>
				<path class="st1" d="M480.75-546v25c0,27.61,22.39,50,50,50v-25c-13.81,0-25-11.19-25-25v-25"/>
			</g>
			<g>
				<path class="st1" d="M480.75-546v-50c-13.81,0-25,11.19-25,25v25"/>
				<path class="st1" d="M530.75-546v-25c0-27.61-22.39-50-50-50v25c13.81,0,25,11.19,25,25v25"/>
			</g>
			<g>
				<path class="st1" d="M530.75-546v50c13.81,0,25-11.19,25-25v-25"/>
				<path class="st1" d="M480.75-546v25c0,27.61,22.39,50,50,50v-25c-13.81,0-25-11.19-25-25v-25"/>
			</g>
			<g>
				<path class="st1" d="M480.75-546v-50c-13.81,0-25,11.19-25,25v25"/>
				<path class="st1" d="M530.75-546v-25c0-27.61-22.39-50-50-50v25c13.81,0,25,11.19,25,25v25"/>
			</g>
			<g>
				<path class="st1" d="M530.75-546v50c13.81,0,25-11.19,25-25v-25"/>
				<path class="st1" d="M480.75-546v25c0,27.61,22.39,50,50,50v-25c-13.81,0-25-11.19-25-25v-25"/>
			</g>
			<g>
				<path class="st1" d="M480.75-546v-50c-13.81,0-25,11.19-25,25v25"/>
				<path class="st1" d="M530.75-546v-25c0-27.61-22.39-50-50-50v25c13.81,0,25,11.19,25,25v25"/>
			</g>
			<g>
				<path class="st1" d="M530.75-546v50c13.81,0,25-11.19,25-25v-25"/>
				<path class="st1" d="M480.75-546v25c0,27.61,22.39,50,50,50v-25c-13.81,0-25-11.19-25-25v-25"/>
			</g>
		</g>
		<g>
			<g>
				<path class="st1" d="M380.75-546v-50c-13.81,0-25,11.19-25,25v25"/>
				<path class="st1" d="M430.75-546v-25c0-27.61-22.39-50-50-50v25c13.81,0,25,11.19,25,25v25"/>
			</g>
			<g>
				<path class="st1" d="M430.75-546v50c13.81,0,25-11.19,25-25v-25"/>
				<path class="st1" d="M380.75-546v25c0,27.61,22.39,50,50,50v-25c-13.81,0-25-11.19-25-25v-25"/>
			</g>
			<g>
				<path class="st1" d="M380.75-546v-50c-13.81,0-25,11.19-25,25v25"/>
				<path class="st1" d="M430.75-546v-25c0-27.61-22.39-50-50-50v25c13.81,0,25,11.19,25,25v25"/>
			</g>
			<g>
				<path class="st1" d="M430.75-546v50c13.81,0,25-11.19,25-25v-25"/>
				<path class="st1" d="M380.75-546v25c0,27.61,22.39,50,50,50v-25c-13.81,0-25-11.19-25-25v-25"/>
			</g>
			<g>
				<path class="st1" d="M380.75-546v-50c-13.81,0-25,11.19-25,25v25"/>
				<path class="st1" d="M430.75-546v-25c0-27.61-22.39-50-50-50v25c13.81,0,25,11.19,25,25v25"/>
			</g>
			<g>
				<path class="st1" d="M430.75-546v50c13.81,0,25-11.19,25-25v-25"/>
				<path class="st1" d="M380.75-546v25c0,27.61,22.39,50,50,50v-25c-13.81,0-25-11.19-25-25v-25"/>
			</g>
			<g>
				<path class="st1" d="M380.75-546v-50c-13.81,0-25,11.19-25,25v25"/>
				<path class="st1" d="M430.75-546v-25c0-27.61-22.39-50-50-50v25c13.81,0,25,11.19,25,25v25"/>
			</g>
			<g>
				<path class="st1" d="M430.75-546v50c13.81,0,25-11.19,25-25v-25"/>
				<path class="st1" d="M380.75-546v25c0,27.61,22.39,50,50,50v-25c-13.81,0-25-11.19-25-25v-25"/>
			</g>
			<g>
				<path class="st1" d="M380.75-546v-50c-13.81,0-25,11.19-25,25v25"/>
				<path class="st1" d="M430.75-546v-25c0-27.61-22.39-50-50-50v25c13.81,0,25,11.19,25,25v25"/>
			</g>
			<g>
				<path class="st1" d="M430.75-546v50c13.81,0,25-11.19,25-25v-25"/>
				<path class="st1" d="M380.75-546v25c0,27.61,22.39,50,50,50v-25c-13.81,0-25-11.19-25-25v-25"/>
			</g>
		</g>
		<g>
			<g>
				<path class="st1" d="M280.75-546v-50c-13.81,0-25,11.19-25,25v25"/>
				<path class="st1" d="M330.75-546v-25c0-27.61-22.39-50-50-50v25c13.81,0,25,11.19,25,25v25"/>
			</g>
			<g>
				<path class="st1" d="M330.75-546v50c13.81,0,25-11.19,25-25v-25"/>
				<path class="st1" d="M280.75-546v25c0,27.61,22.39,50,50,50v-25c-13.81,0-25-11.19-25-25v-25"/>
			</g>
			<g>
				<path class="st1" d="M280.75-546v-50c-13.81,0-25,11.19-25,25v25"/>
				<path class="st1" d="M330.75-546v-25c0-27.61-22.39-50-50-50v25c13.81,0,25,11.19,25,25v25"/>
			</g>
			<g>
				<path class="st1" d="M330.75-546v50c13.81,0,25-11.19,25-25v-25"/>
				<path class="st1" d="M280.75-546v25c0,27.61,22.39,50,50,50v-25c-13.81,0-25-11.19-25-25v-25"/>
			</g>
			<g>
				<path class="st1" d="M280.75-546v-50c-13.81,0-25,11.19-25,25v25"/>
				<path class="st1" d="M330.75-546v-25c0-27.61-22.39-50-50-50v25c13.81,0,25,11.19,25,25v25"/>
			</g>
			<g>
				<path class="st1" d="M330.75-546v50c13.81,0,25-11.19,25-25v-25"/>
				<path class="st1" d="M280.75-546v25c0,27.61,22.39,50,50,50v-25c-13.81,0-25-11.19-25-25v-25"/>
			</g>
			<g>
				<path class="st1" d="M280.75-546v-50c-13.81,0-25,11.19-25,25v25"/>
				<path class="st1" d="M330.75-546v-25c0-27.61-22.39-50-50-50v25c13.81,0,25,11.19,25,25v25"/>
			</g>
			<g>
				<path class="st1" d="M330.75-546v50c13.81,0,25-11.19,25-25v-25"/>
				<path class="st1" d="M280.75-546v25c0,27.61,22.39,50,50,50v-25c-13.81,0-25-11.19-25-25v-25"/>
			</g>
			<g>
				<path class="st1" d="M280.75-546v-50c-13.81,0-25,11.19-25,25v25"/>
				<path class="st1" d="M330.75-546v-25c0-27.61-22.39-50-50-50v25c13.81,0,25,11.19,25,25v25"/>
			</g>
			<g>
				<path class="st1" d="M330.75-546v50c13.81,0,25-11.19,25-25v-25"/>
				<path class="st1" d="M280.75-546v25c0,27.61,22.39,50,50,50v-25c-13.81,0-25-11.19-25-25v-25"/>
			</g>
		</g>
		<g>
			<g>
				<path class="st1" d="M180.75-546v-50c-13.81,0-25,11.19-25,25v25"/>
				<path class="st1" d="M230.75-546v-25c0-27.61-22.39-50-50-50v25c13.81,0,25,11.19,25,25v25"/>
			</g>
			<g>
				<path class="st1" d="M230.75-546v50c13.81,0,25-11.19,25-25v-25"/>
				<path class="st1" d="M180.75-546v25c0,27.61,22.39,50,50,50v-25c-13.81,0-25-11.19-25-25v-25"/>
			</g>
			<g>
				<path class="st1" d="M180.75-546v-50c-13.81,0-25,11.19-25,25v25"/>
				<path class="st1" d="M230.75-546v-25c0-27.61-22.39-50-50-50v25c13.81,0,25,11.19,25,25v25"/>
			</g>
			<g>
				<path class="st1" d="M230.75-546v50c13.81,0,25-11.19,25-25v-25"/>
				<path class="st1" d="M180.75-546v25c0,27.61,22.39,50,50,50v-25c-13.81,0-25-11.19-25-25v-25"/>
			</g>
			<g>
				<path class="st1" d="M180.75-546v-50c-13.81,0-25,11.19-25,25v25"/>
				<path class="st1" d="M230.75-546v-25c0-27.61-22.39-50-50-50v25c13.81,0,25,11.19,25,25v25"/>
			</g>
			<g>
				<path class="st1" d="M230.75-546v50c13.81,0,25-11.19,25-25v-25"/>
				<path class="st1" d="M180.75-546v25c0,27.61,22.39,50,50,50v-25c-13.81,0-25-11.19-25-25v-25"/>
			</g>
			<g>
				<path class="st1" d="M180.75-546v-50c-13.81,0-25,11.19-25,25v25"/>
				<path class="st1" d="M230.75-546v-25c0-27.61-22.39-50-50-50v25c13.81,0,25,11.19,25,25v25"/>
			</g>
			<g>
				<path class="st1" d="M230.75-546v50c13.81,0,25-11.19,25-25v-25"/>
				<path class="st1" d="M180.75-546v25c0,27.61,22.39,50,50,50v-25c-13.81,0-25-11.19-25-25v-25"/>
			</g>
			<g>
				<path class="st1" d="M180.75-546v-50c-13.81,0-25,11.19-25,25v25"/>
				<path class="st1" d="M230.75-546v-25c0-27.61-22.39-50-50-50v25c13.81,0,25,11.19,25,25v25"/>
			</g>
			<g>
				<path class="st1" d="M230.75-546v50c13.81,0,25-11.19,25-25v-25"/>
				<path class="st1" d="M180.75-546v25c0,27.61,22.39,50,50,50v-25c-13.81,0-25-11.19-25-25v-25"/>
			</g>
		</g>
		<g>
			<g>
				<path class="st1" d="M80.75-546v-50c-13.81,0-25,11.19-25,25v25"/>
				<path class="st1" d="M130.75-546v-25c0-27.61-22.39-50-50-50v25c13.81,0,25,11.19,25,25v25"/>
			</g>
			<g>
				<path class="st1" d="M130.75-546v50c13.81,0,25-11.19,25-25v-25"/>
				<path class="st1" d="M80.75-546v25c0,27.61,22.39,50,50,50v-25c-13.81,0-25-11.19-25-25v-25"/>
			</g>
			<g>
				<path class="st1" d="M80.75-546v-50c-13.81,0-25,11.19-25,25v25"/>
				<path class="st1" d="M130.75-546v-25c0-27.61-22.39-50-50-50v25c13.81,0,25,11.19,25,25v25"/>
			</g>
			<g>
				<path class="st1" d="M130.75-546v50c13.81,0,25-11.19,25-25v-25"/>
				<path class="st1" d="M80.75-546v25c0,27.61,22.39,50,50,50v-25c-13.81,0-25-11.19-25-25v-25"/>
			</g>
			<g>
				<path class="st1" d="M80.75-546v-50c-13.81,0-25,11.19-25,25v25"/>
				<path class="st1" d="M130.75-546v-25c0-27.61-22.39-50-50-50v25c13.81,0,25,11.19,25,25v25"/>
			</g>
			<g>
				<path class="st1" d="M130.75-546v50c13.81,0,25-11.19,25-25v-25"/>
				<path class="st1" d="M80.75-546v25c0,27.61,22.39,50,50,50v-25c-13.81,0-25-11.19-25-25v-25"/>
			</g>
			<g>
				<path class="st1" d="M80.75-546v-50c-13.81,0-25,11.19-25,25v25"/>
				<path class="st1" d="M130.75-546v-25c0-27.61-22.39-50-50-50v25c13.81,0,25,11.19,25,25v25"/>
			</g>
			<g>
				<path class="st1" d="M130.75-546v50c13.81,0,25-11.19,25-25v-25"/>
				<path class="st1" d="M80.75-546v25c0,27.61,22.39,50,50,50v-25c-13.81,0-25-11.19-25-25v-25"/>
			</g>
			<g>
				<path class="st1" d="M80.75-546v-50c-13.81,0-25,11.19-25,25v25"/>
				<path class="st1" d="M130.75-546v-25c0-27.61-22.39-50-50-50v25c13.81,0,25,11.19,25,25v25"/>
			</g>
			<g>
				<path class="st1" d="M130.75-546v50c13.81,0,25-11.19,25-25v-25"/>
				<path class="st1" d="M80.75-546v25c0,27.61,22.39,50,50,50v-25c-13.81,0-25-11.19-25-25v-25"/>
			</g>
		</g>
		<g>
			<g>
				<path class="st1" d="M30.75-546v50c13.81,0,25-11.19,25-25v-25"/>
			</g>
			<g>
				<path class="st1" d="M30.75-546v50c13.81,0,25-11.19,25-25v-25"/>
			</g>
			<g>
				<path class="st1" d="M30.75-546v50c13.81,0,25-11.19,25-25v-25"/>
			</g>
			<g>
				<path class="st1" d="M30.75-546v50c13.81,0,25-11.19,25-25v-25"/>
			</g>
			<g>
				<path class="st1" d="M30.75-546v50c13.81,0,25-11.19,25-25v-25"/>
			</g>
		</g>
		<g>
			<g>
				<path class="st1" d="M500.75-702v-50c-13.81,0-25,11.19-25,25v25"/>
				<path class="st1" d="M550.75-702v-25c0-27.61-22.39-50-50-50v25c13.81,0,25,11.19,25,25v25"/>
			</g>
			<g>
				<path class="st1" d="M500.75-702v25c0,27.61,22.39,50,50,50v-25c-13.81,0-25-11.19-25-25v-25"/>
			</g>
			<g>
				<path class="st1" d="M500.75-702v-50c-13.81,0-25,11.19-25,25v25"/>
				<path class="st1" d="M550.75-702v-25c0-27.61-22.39-50-50-50v25c13.81,0,25,11.19,25,25v25"/>
			</g>
			<g>
				<path class="st1" d="M500.75-702v25c0,27.61,22.39,50,50,50v-25c-13.81,0-25-11.19-25-25v-25"/>
			</g>
			<g>
				<path class="st1" d="M500.75-702v-50c-13.81,0-25,11.19-25,25v25"/>
				<path class="st1" d="M550.75-702v-25c0-27.61-22.39-50-50-50v25c13.81,0,25,11.19,25,25v25"/>
			</g>
			<g>
				<path class="st1" d="M500.75-702v25c0,27.61,22.39,50,50,50v-25c-13.81,0-25-11.19-25-25v-25"/>
			</g>
			<g>
				<path class="st1" d="M500.75-702v-50c-13.81,0-25,11.19-25,25v25"/>
				<path class="st1" d="M550.75-702v-25c0-27.61-22.39-50-50-50v25c13.81,0,25,11.19,25,25v25"/>
			</g>
			<g>
				<path class="st1" d="M500.75-702v25c0,27.61,22.39,50,50,50v-25c-13.81,0-25-11.19-25-25v-25"/>
			</g>
			<g>
				<path class="st1" d="M500.75-702v-50c-13.81,0-25,11.19-25,25v25"/>
				<path class="st1" d="M550.75-702v-25c0-27.61-22.39-50-50-50v25c13.81,0,25,11.19,25,25v25"/>
			</g>
			<g>
				<path class="st1" d="M500.75-702v25c0,27.61,22.39,50,50,50v-25c-13.81,0-25-11.19-25-25v-25"/>
			</g>
		</g>
		<g>
			<g>
				<path class="st1" d="M400.75-702v-50c-13.81,0-25,11.19-25,25v25"/>
				<path class="st1" d="M450.75-702v-25c0-27.61-22.39-50-50-50v25c13.81,0,25,11.19,25,25v25"/>
			</g>
			<g>
				<path class="st1" d="M450.75-702v50c13.81,0,25-11.19,25-25v-25"/>
				<path class="st1" d="M400.75-702v25c0,27.61,22.39,50,50,50v-25c-13.81,0-25-11.19-25-25v-25"/>
			</g>
			<g>
				<path class="st1" d="M400.75-702v-50c-13.81,0-25,11.19-25,25v25"/>
				<path class="st1" d="M450.75-702v-25c0-27.61-22.39-50-50-50v25c13.81,0,25,11.19,25,25v25"/>
			</g>
			<g>
				<path class="st1" d="M450.75-702v50c13.81,0,25-11.19,25-25v-25"/>
				<path class="st1" d="M400.75-702v25c0,27.61,22.39,50,50,50v-25c-13.81,0-25-11.19-25-25v-25"/>
			</g>
			<g>
				<path class="st1" d="M400.75-702v-50c-13.81,0-25,11.19-25,25v25"/>
				<path class="st1" d="M450.75-702v-25c0-27.61-22.39-50-50-50v25c13.81,0,25,11.19,25,25v25"/>
			</g>
			<g>
				<path class="st1" d="M450.75-702v50c13.81,0,25-11.19,25-25v-25"/>
				<path class="st1" d="M400.75-702v25c0,27.61,22.39,50,50,50v-25c-13.81,0-25-11.19-25-25v-25"/>
			</g>
			<g>
				<path class="st1" d="M400.75-702v-50c-13.81,0-25,11.19-25,25v25"/>
				<path class="st1" d="M450.75-702v-25c0-27.61-22.39-50-50-50v25c13.81,0,25,11.19,25,25v25"/>
			</g>
			<g>
				<path class="st1" d="M450.75-702v50c13.81,0,25-11.19,25-25v-25"/>
				<path class="st1" d="M400.75-702v25c0,27.61,22.39,50,50,50v-25c-13.81,0-25-11.19-25-25v-25"/>
			</g>
			<g>
				<path class="st1" d="M400.75-702v-50c-13.81,0-25,11.19-25,25v25"/>
				<path class="st1" d="M450.75-702v-25c0-27.61-22.39-50-50-50v25c13.81,0,25,11.19,25,25v25"/>
			</g>
			<g>
				<path class="st1" d="M450.75-702v50c13.81,0,25-11.19,25-25v-25"/>
				<path class="st1" d="M400.75-702v25c0,27.61,22.39,50,50,50v-25c-13.81,0-25-11.19-25-25v-25"/>
			</g>
		</g>
		<g>
			<g>
				<path class="st1" d="M300.75-702v-50c-13.81,0-25,11.19-25,25v25"/>
				<path class="st1" d="M350.75-702v-25c0-27.61-22.39-50-50-50v25c13.81,0,25,11.19,25,25v25"/>
			</g>
			<g>
				<path class="st1" d="M350.75-702v50c13.81,0,25-11.19,25-25v-25"/>
				<path class="st1" d="M300.75-702v25c0,27.61,22.39,50,50,50v-25c-13.81,0-25-11.19-25-25v-25"/>
			</g>
			<g>
				<path class="st1" d="M300.75-702v-50c-13.81,0-25,11.19-25,25v25"/>
				<path class="st1" d="M350.75-702v-25c0-27.61-22.39-50-50-50v25c13.81,0,25,11.19,25,25v25"/>
			</g>
			<g>
				<path class="st1" d="M350.75-702v50c13.81,0,25-11.19,25-25v-25"/>
				<path class="st1" d="M300.75-702v25c0,27.61,22.39,50,50,50v-25c-13.81,0-25-11.19-25-25v-25"/>
			</g>
			<g>
				<path class="st1" d="M300.75-702v-50c-13.81,0-25,11.19-25,25v25"/>
				<path class="st1" d="M350.75-702v-25c0-27.61-22.39-50-50-50v25c13.81,0,25,11.19,25,25v25"/>
			</g>
			<g>
				<path class="st1" d="M350.75-702v50c13.81,0,25-11.19,25-25v-25"/>
				<path class="st1" d="M300.75-702v25c0,27.61,22.39,50,50,50v-25c-13.81,0-25-11.19-25-25v-25"/>
			</g>
			<g>
				<path class="st1" d="M300.75-702v-50c-13.81,0-25,11.19-25,25v25"/>
				<path class="st1" d="M350.75-702v-25c0-27.61-22.39-50-50-50v25c13.81,0,25,11.19,25,25v25"/>
			</g>
			<g>
				<path class="st1" d="M350.75-702v50c13.81,0,25-11.19,25-25v-25"/>
				<path class="st1" d="M300.75-702v25c0,27.61,22.39,50,50,50v-25c-13.81,0-25-11.19-25-25v-25"/>
			</g>
			<g>
				<path class="st1" d="M300.75-702v-50c-13.81,0-25,11.19-25,25v25"/>
				<path class="st1" d="M350.75-702v-25c0-27.61-22.39-50-50-50v25c13.81,0,25,11.19,25,25v25"/>
			</g>
			<g>
				<path class="st1" d="M350.75-702v50c13.81,0,25-11.19,25-25v-25"/>
				<path class="st1" d="M300.75-702v25c0,27.61,22.39,50,50,50v-25c-13.81,0-25-11.19-25-25v-25"/>
			</g>
		</g>
		<g>
			<g>
				<path class="st1" d="M200.75-702v-50c-13.81,0-25,11.19-25,25v25"/>
				<path class="st1" d="M250.75-702v-25c0-27.61-22.39-50-50-50v25c13.81,0,25,11.19,25,25v25"/>
			</g>
			<g>
				<path class="st1" d="M250.75-702v50c13.81,0,25-11.19,25-25v-25"/>
				<path class="st1" d="M200.75-702v25c0,27.61,22.39,50,50,50v-25c-13.81,0-25-11.19-25-25v-25"/>
			</g>
			<g>
				<path class="st1" d="M200.75-702v-50c-13.81,0-25,11.19-25,25v25"/>
				<path class="st1" d="M250.75-702v-25c0-27.61-22.39-50-50-50v25c13.81,0,25,11.19,25,25v25"/>
			</g>
			<g>
				<path class="st1" d="M250.75-702v50c13.81,0,25-11.19,25-25v-25"/>
				<path class="st1" d="M200.75-702v25c0,27.61,22.39,50,50,50v-25c-13.81,0-25-11.19-25-25v-25"/>
			</g>
			<g>
				<path class="st1" d="M200.75-702v-50c-13.81,0-25,11.19-25,25v25"/>
				<path class="st1" d="M250.75-702v-25c0-27.61-22.39-50-50-50v25c13.81,0,25,11.19,25,25v25"/>
			</g>
			<g>
				<path class="st1" d="M250.75-702v50c13.81,0,25-11.19,25-25v-25"/>
				<path class="st1" d="M200.75-702v25c0,27.61,22.39,50,50,50v-25c-13.81,0-25-11.19-25-25v-25"/>
			</g>
			<g>
				<path class="st1" d="M200.75-702v-50c-13.81,0-25,11.19-25,25v25"/>
				<path class="st1" d="M250.75-702v-25c0-27.61-22.39-50-50-50v25c13.81,0,25,11.19,25,25v25"/>
			</g>
			<g>
				<path class="st1" d="M250.75-702v50c13.81,0,25-11.19,25-25v-25"/>
				<path class="st1" d="M200.75-702v25c0,27.61,22.39,50,50,50v-25c-13.81,0-25-11.19-25-25v-25"/>
			</g>
			<g>
				<path class="st1" d="M200.75-702v-50c-13.81,0-25,11.19-25,25v25"/>
				<path class="st1" d="M250.75-702v-25c0-27.61-22.39-50-50-50v25c13.81,0,25,11.19,25,25v25"/>
			</g>
			<g>
				<path class="st1" d="M250.75-702v50c13.81,0,25-11.19,25-25v-25"/>
				<path class="st1" d="M200.75-702v25c0,27.61,22.39,50,50,50v-25c-13.81,0-25-11.19-25-25v-25"/>
			</g>
		</g>
		<g>
			<g>
				<path class="st1" d="M100.75-702v-50c-13.81,0-25,11.19-25,25v25"/>
				<path class="st1" d="M150.75-702v-25c0-27.61-22.39-50-50-50v25c13.81,0,25,11.19,25,25v25"/>
			</g>
			<g>
				<path class="st1" d="M150.75-702v50c13.81,0,25-11.19,25-25v-25"/>
				<path class="st1" d="M100.75-702v25c0,27.61,22.39,50,50,50v-25c-13.81,0-25-11.19-25-25v-25"/>
			</g>
			<g>
				<path class="st1" d="M100.75-702v-50c-13.81,0-25,11.19-25,25v25"/>
				<path class="st1" d="M150.75-702v-25c0-27.61-22.39-50-50-50v25c13.81,0,25,11.19,25,25v25"/>
			</g>
			<g>
				<path class="st1" d="M150.75-702v50c13.81,0,25-11.19,25-25v-25"/>
				<path class="st1" d="M100.75-702v25c0,27.61,22.39,50,50,50v-25c-13.81,0-25-11.19-25-25v-25"/>
			</g>
			<g>
				<path class="st1" d="M100.75-702v-50c-13.81,0-25,11.19-25,25v25"/>
				<path class="st1" d="M150.75-702v-25c0-27.61-22.39-50-50-50v25c13.81,0,25,11.19,25,25v25"/>
			</g>
			<g>
				<path class="st1" d="M150.75-702v50c13.81,0,25-11.19,25-25v-25"/>
				<path class="st1" d="M100.75-702v25c0,27.61,22.39,50,50,50v-25c-13.81,0-25-11.19-25-25v-25"/>
			</g>
			<g>
				<path class="st1" d="M100.75-702v-50c-13.81,0-25,11.19-25,25v25"/>
				<path class="st1" d="M150.75-702v-25c0-27.61-22.39-50-50-50v25c13.81,0,25,11.19,25,25v25"/>
			</g>
			<g>
				<path class="st1" d="M150.75-702v50c13.81,0,25-11.19,25-25v-25"/>
				<path class="st1" d="M100.75-702v25c0,27.61,22.39,50,50,50v-25c-13.81,0-25-11.19-25-25v-25"/>
			</g>
			<g>
				<path class="st1" d="M100.75-702v-50c-13.81,0-25,11.19-25,25v25"/>
				<path class="st1" d="M150.75-702v-25c0-27.61-22.39-50-50-50v25c13.81,0,25,11.19,25,25v25"/>
			</g>
			<g>
				<path class="st1" d="M150.75-702v50c13.81,0,25-11.19,25-25v-25"/>
				<path class="st1" d="M100.75-702v25c0,27.61,22.39,50,50,50v-25c-13.81,0-25-11.19-25-25v-25"/>
			</g>
		</g>
		<g>
			<g>
				<path class="st1" d="M50.75-702v-25c0-27.61-22.39-50-50-50v25c13.81,0,25,11.19,25,25v25"/>
			</g>
			<g>
				<path class="st1" d="M50.75-702v50c13.81,0,25-11.19,25-25v-25"/>
				<path class="st1" d="M0.75-702v25c0,27.61,22.39,50,50,50v-25c-13.81,0-25-11.19-25-25v-25"/>
			</g>
			<g>
				<path class="st1" d="M50.75-702v-25c0-27.61-22.39-50-50-50v25c13.81,0,25,11.19,25,25v25"/>
			</g>
			<g>
				<path class="st1" d="M50.75-702v50c13.81,0,25-11.19,25-25v-25"/>
				<path class="st1" d="M0.75-702v25c0,27.61,22.39,50,50,50v-25c-13.81,0-25-11.19-25-25v-25"/>
			</g>
			<g>
				<path class="st1" d="M50.75-702v-25c0-27.61-22.39-50-50-50v25c13.81,0,25,11.19,25,25v25"/>
			</g>
			<g>
				<path class="st1" d="M50.75-702v50c13.81,0,25-11.19,25-25v-25"/>
				<path class="st1" d="M0.75-702v25c0,27.61,22.39,50,50,50v-25c-13.81,0-25-11.19-25-25v-25"/>
			</g>
			<g>
				<path class="st1" d="M50.75-702v-25c0-27.61-22.39-50-50-50v25c13.81,0,25,11.19,25,25v25"/>
			</g>
			<g>
				<path class="st1" d="M50.75-702v50c13.81,0,25-11.19,25-25v-25"/>
				<path class="st1" d="M0.75-702v25c0,27.61,22.39,50,50,50v-25c-13.81,0-25-11.19-25-25v-25"/>
			</g>
			<g>
				<path class="st1" d="M50.75-702v-25c0-27.61-22.39-50-50-50v25c13.81,0,25,11.19,25,25v25"/>
			</g>
			<g>
				<path class="st1" d="M50.75-702v50c13.81,0,25-11.19,25-25v-25"/>
				<path class="st1" d="M0.75-702v25c0,27.61,22.39,50,50,50v-25c-13.81,0-25-11.19-25-25v-25"/>
			</g>
		</g>
	</g>
</pattern>
<pattern  id="SVGID_1_" xlink:href="#New_Pattern_12" patternTransform="matrix(1 0 0 1 320 28)">
</pattern>
<rect x="0" class="st2" width="1920" height="1080"/>
</svg>
