<svg width="98" height="24" viewBox="0 0 98 24" fill="none" xmlns="http://www.w3.org/2000/svg">
<path d="M0 15.573V23.5164H7.65107V7.74707C5.62188 7.74707 3.6758 8.5715 2.24095 10.039C0.806092 11.5065 0 13.4968 0 15.5721" fill="#3873FF"/>
<path d="M7.65027 9.80805e-08V7.82595C8.65536 7.82526 9.65073 8.0272 10.5795 8.42024C11.5082 8.81328 12.3521 9.38969 13.0628 10.1165C13.7736 10.8434 14.3372 11.7064 14.7216 12.6562C15.106 13.606 15.3036 14.6239 15.303 15.6519V23.5164H22.9558V15.6519C22.9558 13.5963 22.5599 11.5609 21.7907 9.66177C21.0215 7.76268 19.8941 6.03715 18.4728 4.58372C17.0516 3.13028 15.3643 1.97741 13.5073 1.19093C11.6504 0.404448 9.66014 -0.000230013 7.65027 9.80805e-08Z" fill="#3873FF"/>
<path d="M30.5356 8.0117H34.918V10.1914H35.2152C36.3399 8.43922 37.7918 7.55789 39.6275 7.55789C43.0616 7.55789 45.3427 10.2834 45.3427 14.0084V23.5182H40.9604V14.6436C40.9604 12.7346 39.8931 11.4021 38.1165 11.4021C36.3699 11.4021 34.918 12.8257 34.918 14.7934V23.5182H30.5356V8.0117Z" fill="black"/>
<path d="M47.3446 15.7649C47.3446 10.7669 50.6904 7.52985 55.7538 7.52985C60.7879 7.52985 64.1646 10.7713 64.1646 15.7649C64.1646 20.7918 60.7879 24 55.7538 24C50.6904 24 47.3446 20.7585 47.3446 15.7649ZM59.7523 15.7649C59.7523 13.191 58.094 11.3732 55.7538 11.3732C53.3853 11.3732 51.7278 13.191 51.7278 15.7649C51.7278 18.3388 53.3861 20.1865 55.7538 20.1865C58.094 20.1865 59.7523 18.3388 59.7523 15.7649Z" fill="black"/>
<path d="M64.2323 8.01172H68.851L72.5241 19.8536H72.8205L76.5218 8.01172H81.1114L75.8399 23.5182H69.5038L64.2323 8.01172Z" fill="black"/>
<path d="M81.1799 15.7649C81.1799 10.7669 84.5258 7.52985 89.5891 7.52985C94.6233 7.52985 97.9999 10.7713 97.9999 15.7649C97.9999 20.7918 94.6233 24 89.5891 24C84.5258 24 81.1799 20.7585 81.1799 15.7649ZM93.5876 15.7649C93.5876 13.191 91.9293 11.3732 89.5891 11.3732C87.2206 11.3732 85.5631 13.191 85.5631 15.7649C85.5631 18.3388 87.2206 20.1865 89.5891 20.1865C91.9293 20.1865 93.5876 18.3388 93.5876 15.7649Z" fill="black"/>
</svg>
